HIERARCHY
ROOT Hips
{
	OFFSET 0.000000 0.000000 0.000000
	CHANNELS 6 Xposition Yposition Zposition Xrotation Yrotation Zrotation
	JOINT LeftUpLeg_virtual
	{
		OFFSET 0.000000 0.000000 0.000000
		CHANNELS 3 Xrotation Yrotation Zrotation
		JOINT LeftUpLeg
		{
			OFFSET 10.205400 -3.823500 0.155100
			CHANNELS 3 Xrotation Yrotation Zrotation
			JOINT LeftLeg
			{
				OFFSET 0.708757 -12.982077 0.567790
				CHANNELS 3 Xrotation Yrotation Zrotation
				JOINT LeftFoot
				{
					OFFSET -0.708756 -10.717838 -2.184338
					CHANNELS 3 Xrotation Yrotation Zrotation
					JOINT LeftToeBase
					{
						OFFSET 0.108149 -7.191104 7.560241
						CHANNELS 3 Xrotation Yrotation Zrotation
						JOINT LeftToe_End
						{
							OFFSET 0.070230 0.081724 4.490308
							CHANNELS 3 Xrotation Yrotation Zrotation
							End Site
							{
								OFFSET 0 0 0
							}
						}
					}
				}
			}
		}
	}
	JOINT RightUpLeg_virtual
	{
		OFFSET 0.000000 0.000000 0.000000
		CHANNELS 3 Xrotation Yrotation Zrotation
		JOINT RightUpLeg
		{
			OFFSET -10.205400 -3.823500 0.005500
			CHANNELS 3 Xrotation Yrotation Zrotation
			JOINT RightLeg
			{
				OFFSET -0.708756 -12.982134 0.610632
				CHANNELS 3 Xrotation Yrotation Zrotation
				JOINT RightFoot
				{
					OFFSET 0.708754 -10.717769 -1.945823
					CHANNELS 3 Xrotation Yrotation Zrotation
					JOINT RightToeBase
					{
						OFFSET -0.108140 -7.191069 7.372968
						CHANNELS 3 Xrotation Yrotation Zrotation
						JOINT RightToe_End
						{
							OFFSET -0.070227 0.081735 4.479403
							CHANNELS 3 Xrotation Yrotation Zrotation
							End Site
							{
								OFFSET 0 0 0
							}
						}
					}
				}
			}
		}
	}
	JOINT Spine_virtual
	{
		OFFSET 0.000000 0.000000 0.000000
		CHANNELS 3 Xrotation Yrotation Zrotation
		JOINT Spine
		{
			OFFSET 0.000000 6.876099 0.125700
			CHANNELS 3 Xrotation Yrotation Zrotation
			JOINT Spine1
			{
				OFFSET 0.000000 5.730043 0.104720
				CHANNELS 3 Xrotation Yrotation Zrotation
				JOINT Spine1_split
				{
					OFFSET 0.000000 5.730043 0.104720
					CHANNELS 3 Xrotation Yrotation Zrotation
					JOINT Spine2
					{
						OFFSET 0.000000 5.730043 0.104720
						CHANNELS 3 Xrotation Yrotation Zrotation
						JOINT Neck_virtual
						{
							OFFSET 0.000000 0.000000 0.000000
							CHANNELS 3 Xrotation Yrotation Zrotation
							JOINT Neck
							{
								OFFSET 0.000000 10.314075 0.188496
								CHANNELS 3 Xrotation Yrotation Zrotation
								JOINT Head
								{
									OFFSET 0.000000 7.643700 -2.377400
									CHANNELS 3 Xrotation Yrotation Zrotation
									JOINT HeadTop_End
									{
										OFFSET 0.000000 43.788605 -13.619600
										CHANNELS 3 Xrotation Yrotation Zrotation
										End Site
										{
											OFFSET 0 0 0
										}
									}
								}
							}
						}
						JOINT LeftShoulder_virtual
						{
							OFFSET 0.000000 0.000000 0.000000
							CHANNELS 3 Xrotation Yrotation Zrotation
							JOINT LeftShoulder
							{
								OFFSET 2.196100 4.412489 0.087492
								CHANNELS 3 Xrotation Yrotation Zrotation
								JOINT LeftShoulder_split
								{
									OFFSET 2.196100 4.412489 0.087492
									CHANNELS 3 Xrotation Yrotation Zrotation
									JOINT LeftArm
									{
										OFFSET 8.771219 -2.981674 -0.026999
										CHANNELS 3 Xrotation Yrotation Zrotation
										JOINT LeftForeArm
										{
											OFFSET 8.512804 0.000000 -0.000000
											CHANNELS 3 Xrotation Yrotation Zrotation
											JOINT LeftHand
											{
												OFFSET 18.484802 0.000000 -0.000000
												CHANNELS 3 Xrotation Yrotation Zrotation
												End Site
												{
													OFFSET 0 0 0
												}
											}
										}
									}
								}
							}
						}
						JOINT RightShoulder_virtual
						{
							OFFSET 0.000000 0.000000 0.000000
							CHANNELS 3 Xrotation Yrotation Zrotation
							JOINT RightShoulder
							{
								OFFSET -2.196100 4.412496 0.070690
								CHANNELS 3 Xrotation Yrotation Zrotation
								JOINT RightShoulder_split
								{
									OFFSET -2.196100 4.412496 0.070690
									CHANNELS 3 Xrotation Yrotation Zrotation
									JOINT RightArm
									{
										OFFSET -8.771282 -2.981682 -0.094208
										CHANNELS 3 Xrotation Yrotation Zrotation
										JOINT RightForeArm
										{
											OFFSET -8.494598 0.000000 0.000000
											CHANNELS 3 Xrotation Yrotation Zrotation
											JOINT RightHand
											{
												OFFSET -18.483803 0.000000 0.000001
												CHANNELS 3 Xrotation Yrotation Zrotation
												End Site
												{
													OFFSET 0 0 0
												}
											}
										}
									}
								}
							}
						}
					}
				}
			}
		}
	}
}
MOTION
Frames: 4
Frame Time: 0.03333333
-13.312034 32.503998 -19.051977 0.000000 0.000000 0.000000 7.139677 10.838915 -1.455828 -48.923580 7.016839 15.908682 41.799829 7.442877 -1.216930 23.625568 6.142308 -9.393967 -11.300755 -2.620813 8.385250 0.000000 0.000000 0.000000 7.725925 11.300253 -1.697295 10.793065 -17.163434 -4.329888 17.299887 11.004419 2.124787 -28.398123 -25.927716 17.920471 -2.749840 14.814955 -3.614452 0.000000 0.000000 0.000000 7.512633 13.659437 -2.245559 4.262523 -0.300135 -3.086303 0.349204 -0.113494 -1.517749 0.156020 0.126190 0.005678 0.000000 0.000000 0.000000 0.920900 3.153156 -2.469955 0.299306 7.211631 5.173501 7.469433 18.424461 2.651397 0.000000 0.000000 0.000000 0.168346 1.080003 -2.840097 2.865343 1.095929 -9.139290 1.257915 -0.249478 1.011387 -20.848273 18.295042 -29.009306 -7.808695 -57.597114 -11.754875 0.000000 0.000000 0.000000 2.077462 2.087235 -2.233909 -1.454215 -10.958963 16.748230 3.774853 1.034045 1.020529 -23.006275 -16.392594 35.900311 0.680014 16.406777 0.887043 0.000000 0.000000 0.000000 
-12.891499 32.988831 -19.407232 0.000000 0.000000 0.000000 7.720915 11.094534 -0.851698 -42.512392 4.569190 17.453855 44.793173 7.501741 -1.691074 19.447432 11.520333 -11.464360 -5.489146 -1.863539 5.041842 0.000000 0.000000 0.000000 8.439157 11.316751 -1.020954 5.189530 -17.773885 -7.403713 18.252610 11.331988 2.149563 -22.301367 -24.837440 19.793548 -4.244980 14.388533 -3.289495 0.000000 0.000000 0.000000 8.721006 14.683196 -1.850455 3.501254 0.774950 -2.578074 -0.353641 0.277103 -1.861581 0.193810 0.148306 0.003953 0.000000 0.000000 0.000000 0.192238 3.438732 -2.556607 -0.096591 8.112707 4.086278 5.890813 12.608919 2.389458 0.000000 0.000000 0.000000 -0.360546 1.525218 -3.246230 3.310836 2.182944 -11.439444 1.894108 -0.971886 1.458621 -7.369200 25.443763 -35.574777 -7.566073 -58.253235 -11.171576 0.000000 0.000000 0.000000 1.802626 2.548949 -2.598500 -1.655420 -9.908170 15.915560 4.893549 0.182881 0.835495 -25.170850 -16.395270 33.825525 1.646310 18.024123 -0.118128 0.000000 0.000000 0.000000 
-12.404662 33.417007 -19.662512 0.000000 0.000000 0.000000 8.326524 11.640919 -0.372484 -36.627771 2.522583 19.410896 43.849685 8.324828 -2.063763 16.774490 17.628570 -14.077599 2.918803 -1.232318 1.133895 0.000000 0.000000 0.000000 9.501285 11.774282 -0.532516 1.438902 -18.029126 -10.236937 17.336979 11.604655 2.017041 -17.962358 -24.225255 22.141305 -4.669396 14.345383 -3.887190 0.000000 0.000000 0.000000 9.815883 16.046211 -1.761765 2.514975 1.778491 -2.061318 -0.954204 0.593694 -2.105346 0.232451 0.209394 -0.008811 0.000000 0.000000 0.000000 -0.416858 3.618467 -2.625620 0.212694 8.945928 2.761336 4.545559 7.142486 2.269097 0.000000 0.000000 0.000000 -0.751786 1.808061 -3.557842 3.710291 3.159116 -12.695506 1.989210 -1.934395 1.347820 4.647601 29.803763 -42.285551 -5.641388 -55.646118 -9.098842 0.000000 0.000000 0.000000 1.628202 2.902608 -2.822828 -1.714592 -9.005411 15.163099 5.142102 -0.587306 0.894288 -26.333122 -17.119350 32.111311 2.234601 19.075696 -0.783080 0.000000 0.000000 0.000000 
-11.805522 33.668819 -19.976957 0.000000 0.000000 0.000000 9.220677 12.934985 -0.292636 -31.678759 0.728459 21.786166 39.487014 8.856899 -1.826917 17.100599 21.994790 -18.518356 7.761766 -1.164704 -1.264321 0.000000 0.000000 0.000000 10.572487 12.956566 -0.528878 0.360266 -18.043567 -12.115416 14.870432 11.752227 1.642070 -16.292708 -24.323794 24.918461 -3.661665 14.751047 -5.384004 0.000000 0.000000 0.000000 10.904723 18.147772 -2.082039 1.457343 2.587339 -1.568166 -1.470388 0.802915 -2.286424 0.242483 0.230748 0.002461 0.000000 0.000000 0.000000 -0.824927 3.721154 -2.716257 1.175990 9.592296 1.504894 3.556710 2.083950 2.536793 0.000000 0.000000 0.000000 -1.049185 1.938423 -3.754755 3.994529 3.876158 -12.752507 1.703964 -2.638845 0.629542 12.687300 32.158614 -47.026870 -3.293730 -50.548861 -6.752742 0.000000 0.000000 0.000000 1.481566 3.123266 -2.906476 -1.674870 -8.303839 14.492744 4.546947 -1.450468 1.254285 -26.736854 -18.315415 30.387150 2.453418 19.409772 -1.050759 0.000000 0.000000 0.000000 
